# xmcd CD database file
#
# Track frame offsets:
#	150
#	22038
#	43448
#	65020
#	85857
#	114286
#	133456
#	154713
#	169856
#	184684
#	203972
#	224513
#	243659
#	264318
#
# Disc length: 3801 seconds
#
# Revision: 4
# Processed by: cddbd v1.5PL3 Copyright (c) Steve Scherf et al.
# Submitted via: CDex 1.50
#
DISCID=d50ed70e
DTITLE=Omunibas - LOVE STORIES 1 (Disk 1)
DYEAR=1900
DGENRE=
TTITLE0=Love Story wa Totuzen ni
TTITLE1=SAY YES
TTITLE2=LA LA LA LOVE SONG
TTITLE3=Kimiga Irudakede
TTITLE4=CAN YOU CELEBRATE?
TTITLE5=Hello,my friend
TTITLE6=Saboten no Hana
TTITLE7=Sasurai
TTITLE8=KNOCKIN'ON YOUR DOOR
TTITLE9=GLORIA
TTITLE10=How7RE you doing,Guys?
TTITLE11=Dakisimete TONIGHT
TTITLE12=You're the Only
TTITLE13=Always
EXTD=
EXTT0=
EXTT1=
EXTT2=
EXTT3=
EXTT4=
EXTT5=
EXTT6=
EXTT7=
EXTT8=
EXTT9=
EXTT10=
EXTT11=
EXTT12=
EXTT13=
PLAYORDER=
